<svg width="46" height="48" viewBox="0 0 46 48" fill="none" xmlns="http://www.w3.org/2000/svg">
  <path fill="pink" fill-rule="evenodd" clip-rule="evenodd" d="M39.1257 34.7302C38.6722 34.7302 38.2288 34.8648 37.8517 35.1168C37.4747 35.3688 37.1809 35.7271 37.0074 36.1461C36.834 36.5652 36.7888 37.0263 36.8775 37.4711C36.9663 37.9159 37.1849 38.3243 37.5058 38.6448C37.8268 38.9653 38.2355 39.1834 38.6804 39.2715C39.1253 39.3595 39.5864 39.3137 40.0052 39.1397C40.424 38.9657 40.7818 38.6714 41.0334 38.2939C41.2849 37.9165 41.4188 37.473 41.4181 37.0195C41.4173 36.412 41.1754 35.8298 40.7456 35.4005C40.3157 34.9713 39.7331 34.7302 39.1257 34.7302Z"></path>
  <path fill="black" fill-rule="evenodd" clip-rule="evenodd" d="M11.2599 13.3597C8.39057 16.2192 6.76472 20.095 6.73527 24.1458C6.70582 28.1967 8.27513 32.0957 11.1026 34.9966C11.1235 35.018 11.1485 35.035 11.1761 35.0465C11.2036 35.0581 11.2332 35.0641 11.2631 35.0641C11.293 35.0641 11.3226 35.0581 11.3502 35.0465C11.3778 35.035 11.4028 35.018 11.4237 34.9966L15.6875 30.7264C15.7089 30.7055 15.7258 30.6805 15.7374 30.6529C15.749 30.6254 15.755 30.5958 15.755 30.5659C15.755 30.536 15.749 30.5064 15.7374 30.4788C15.7258 30.4512 15.7089 30.4263 15.6875 30.4053C14.1404 28.7013 13.3091 26.4669 13.3662 24.1661C13.4233 21.8653 14.3645 19.6749 15.9942 18.0498C17.6238 16.4246 19.8169 15.4896 22.1178 15.439C24.4188 15.3883 26.6508 16.2258 28.3505 17.7776C28.3907 17.8172 28.4449 17.8394 28.5014 17.8394C28.5579 17.8394 28.6121 17.8172 28.6523 17.7776L32.9225 13.517C32.9439 13.4961 32.9609 13.4711 32.9725 13.4436C32.984 13.416 32.99 13.3864 32.99 13.3565C32.99 13.3266 32.984 13.297 32.9725 13.2694C32.9609 13.2419 32.9439 13.2169 32.9225 13.196C30.013 10.3764 26.1122 8.81278 22.0607 8.8422C18.0092 8.87163 14.1314 10.4917 11.2631 13.3533"></path>
  <path fill="black" fill-rule="evenodd" clip-rule="evenodd" d="M30.3412 27.156H25.2715C25.2142 27.1568 25.1595 27.1802 25.1192 27.2211C25.079 27.2619 25.0564 27.317 25.0564 27.3743V38.8494C25.0562 38.882 25.0633 38.9142 25.0771 38.9437C25.091 38.9733 25.1113 38.9993 25.1366 39.0199C25.1618 39.0405 25.1914 39.0553 25.2231 39.063C25.2548 39.0707 25.2878 39.0712 25.3197 39.0645C28.1685 38.4294 30.7783 36.9983 32.8456 34.9379C34.9128 32.8775 36.3525 30.2724 36.997 27.4257C37.0037 27.3936 37.0031 27.3605 36.9954 27.3286C36.9877 27.2968 36.973 27.2671 36.9525 27.2416C36.9319 27.2161 36.9059 27.1955 36.8764 27.1813C36.8469 27.167 36.8146 27.1595 36.7819 27.1592L30.3412 27.156Z"></path>
</svg>